{
  "accessors": [
    {
      "bufferView": 2,
      "componentType": 5126,
      "count": 4166,
      "max": [
        69.257698059082031,
        16.625900268554688,
        69.369300842285156
      ],
      "min": [
        0,
        0,
        0
      ],
      "type": "VEC3"
    },
    {
      "bufferView": 2,
      "byteOffset": 49992,
      "componentType": 5126,
      "count": 4166,
      "max": [
        0.99969762563705444,
        0.99986249208450317,
        0.99928611516952515
      ],
      "min": [
        -0.99969762563705444,
        -0.99975132942199707,
        -0.99979621171951294
      ],
      "type": "VEC3"
    },
    {
      "bufferView": 3,
      "componentType": 5126,
      "count": 4166,
      "max": [
        0.99999803304672241,
        0.99992644786834717,
        0.99999618530273438,
        1
      ],
      "min": [
        -0.99993050098419189,
        -0.99847519397735596,
        -0.99545300006866455,
        -1
      ],
      "type": "VEC4"
    },
    {
      "bufferView": 1,
      "componentType": 5126,
      "count": 4166,
      "max": [
        0.99709999561309814,
        -0.0026000000070780516
      ],
      "min": [
        0.0026000000070780516,
        -0.99510002136230469
      ],
      "type": "VEC2"
    },
    {
      "bufferView": 0,
      "componentType": 5125,
      "count": 19302,
      "max": [
        4165
      ],
      "min": [
        0
      ],
      "type": "SCALAR"
    },
    {
      "bufferView": 2,
      "byteOffset": 99984,
      "componentType": 5126,
      "count": 1536,
      "max": [
        38.513198852539062,
        12.075200080871582,
        77.611503601074219
      ],
      "min": [
        30.744598388671875,
        2.8564000129699707,
        62.103599548339844
      ],
      "type": "VEC3"
    },
    {
      "bufferView": 2,
      "byteOffset": 118416,
      "componentType": 5126,
      "count": 1536,
      "max": [
        0.99955165386199951,
        0.99571287631988525,
        1
      ],
      "min": [
        -0.99988514184951782,
        -0.9999624490737915,
        -1
      ],
      "type": "VEC3"
    },
    {
      "bufferView": 3,
      "byteOffset": 66656,
      "componentType": 5126,
      "count": 1536,
      "max": [
        1,
        0.99935144186019897,
        0.99429714679718018,
        1
      ],
      "min": [
        -0.99987554550170898,
        -0.99966162443161011,
        -0.99007713794708252,
        -1
      ],
      "type": "VEC4"
    },
    {
      "bufferView": 1,
      "byteOffset": 33328,
      "componentType": 5126,
      "count": 1536,
      "max": [
        0.99409997463226318,
        -0.0071000000461935997
      ],
      "min": [
        0.0043000001460313797,
        -0.99370002746582031
      ],
      "type": "VEC2"
    },
    {
      "bufferView": 0,
      "byteOffset": 77208,
      "componentType": 5125,
      "count": 8418,
      "max": [
        1535
      ],
      "min": [
        0
      ],
      "type": "SCALAR"
    },
    {
      "bufferView": 2,
      "byteOffset": 136848,
      "componentType": 5126,
      "count": 391,
      "max": [
        40.878898620605469,
        10.292900085449219,
        71.048896789550781
      ],
      "min": [
        33.234897613525391,
        3.9648003578186035,
        66.712997436523438
      ],
      "type": "VEC3"
    },
    {
      "bufferView": 2,
      "byteOffset": 141540,
      "componentType": 5126,
      "count": 391,
      "max": [
        0.99767923355102539,
        0.97769951820373535,
        1
      ],
      "min": [
        -0.99767923355102539,
        -0.99572521448135376,
        -0.99995112419128418
      ],
      "type": "VEC3"
    },
    {
      "bufferView": 3,
      "byteOffset": 91232,
      "componentType": 5126,
      "count": 391,
      "max": [
        0.9990660548210144,
        0.99925142526626587,
        0.99247968196868896,
        1
      ],
      "min": [
        -0.99906057119369507,
        -0.99992108345031738,
        -0.99243795871734619,
        -1
      ],
      "type": "VEC4"
    },
    {
      "bufferView": 0,
      "byteOffset": 110880,
      "componentType": 5125,
      "count": 1650,
      "max": [
        390
      ],
      "min": [
        0
      ],
      "type": "SCALAR"
    }
  ],
  "asset": {
    "extras": {
      "author": "クロ | Kuro (https://sketchfab.com/KaliNoob)",
      "license": "CC-BY-4.0 (http://creativecommons.org/licenses/by/4.0/)",
      "source": "https://sketchfab.com/models/0e90379d67654543be477891aad89e9d",
      "title": "Adolf Hitler"
    },
    "generator": "Sketchfab-3.18.5",
    "version": "2.0"
  },
  "bufferViews": [
    {
      "buffer": 0,
      "byteLength": 117480,
      "byteOffset": 0,
      "name": "floatBufferViews",
      "target": 34963
    },
    {
      "buffer": 0,
      "byteLength": 45616,
      "byteOffset": 117480,
      "byteStride": 8,
      "name": "floatBufferViews",
      "target": 34962
    },
    {
      "buffer": 0,
      "byteLength": 146232,
      "byteOffset": 163096,
      "byteStride": 12,
      "name": "floatBufferViews",
      "target": 34962
    },
    {
      "buffer": 0,
      "byteLength": 97488,
      "byteOffset": 309328,
      "byteStride": 16,
      "name": "floatBufferViews",
      "target": 34962
    }
  ],
  "buffers": [
    {
      "byteLength": 406816,
      "uri": "scene.bin"
    }
  ],
  "images": [
    {
      "uri": "textures/Body_baseColor.png"
    },
    {
      "uri": "textures/Head_baseColor.png"
    }
  ],
  "materials": [
    {
      "doubleSided": true,
      "emissiveFactor": [
        0,
        0,
        0
      ],
      "name": "Body",
      "pbrMetallicRoughness": {
        "baseColorFactor": [
          1,
          1,
          1,
          1
        ],
        "baseColorTexture": {
          "index": 0,
          "texCoord": 0
        },
        "metallicFactor": 0,
        "roughnessFactor": 0.59999999999999998
      }
    },
    {
      "doubleSided": true,
      "emissiveFactor": [
        0,
        0,
        0
      ],
      "name": "Head",
      "pbrMetallicRoughness": {
        "baseColorFactor": [
          1,
          1,
          1,
          1
        ],
        "baseColorTexture": {
          "index": 1,
          "texCoord": 0
        },
        "metallicFactor": 0,
        "roughnessFactor": 0.59999999999999998
      }
    },
    {
      "doubleSided": true,
      "emissiveFactor": [
        0,
        0,
        0
      ],
      "name": "material_0",
      "pbrMetallicRoughness": {
        "baseColorFactor": [
          0.80000000000000004,
          0.80000000000000004,
          0.80000000000000004,
          1
        ],
        "metallicFactor": 0,
        "roughnessFactor": 0.59999999999999998
      }
    }
  ],
  "meshes": [
    {
      "primitives": [
        {
          "attributes": {
            "NORMAL": 1,
            "POSITION": 0,
            "TANGENT": 2,
            "TEXCOORD_0": 3
          },
          "indices": 4,
          "material": 0,
          "mode": 4
        }
      ]
    },
    {
      "primitives": [
        {
          "attributes": {
            "NORMAL": 6,
            "POSITION": 5,
            "TANGENT": 7,
            "TEXCOORD_0": 8
          },
          "indices": 9,
          "material": 1,
          "mode": 4
        }
      ]
    },
    {
      "primitives": [
        {
          "attributes": {
            "NORMAL": 11,
            "POSITION": 10,
            "TANGENT": 12
          },
          "indices": 13,
          "material": 2,
          "mode": 4
        }
      ]
    }
  ],
  "nodes": [
    {
      "children": [
        1
      ],
      "name": "RootNode (gltf orientation matrix)",
      "rotation": [
        -0.70710678118654746,
        -0,
        -0,
        0.70710678118654757
      ]
    },
    {
      "children": [
        2
      ],
      "name": "RootNode (model correction matrix)"
    },
    {
      "children": [
        3,
        4,
        5
      ],
      "matrix": [
        1,
        0,
        0,
        0,
        0,
        1,
        0,
        0,
        0,
        0,
        1,
        0,
        -34.628898620605469,
        -8.3154001235961914,
        0.00559999980032444,
        1
      ],
      "name": "hitler.obj.cleaner.gles"
    },
    {
      "mesh": 0,
      "name": ""
    },
    {
      "mesh": 1,
      "name": ""
    },
    {
      "mesh": 2,
      "name": ""
    }
  ],
  "samplers": [
    {
      "magFilter": 9729,
      "minFilter": 9987,
      "wrapS": 10497,
      "wrapT": 10497
    }
  ],
  "scene": 0,
  "scenes": [
    {
      "name": "OSG_Scene",
      "nodes": [
        0
      ]
    }
  ],
  "textures": [
    {
      "sampler": 0,
      "source": 0
    },
    {
      "sampler": 0,
      "source": 1
    }
  ]
}

