{
  "accessors": [
    {
      "bufferView": 2,
      "componentType": 5126,
      "count": 85,
      "max": [
        0.61646074056625366,
        102.86192321777344,
        10.99269962310791
      ],
      "min": [
        -0.61643707752227783,
        -103.12480926513672,
        -9.3604774475097656
      ],
      "type": "VEC3"
    },
    {
      "bufferView": 2,
      "byteOffset": 1020,
      "componentType": 5126,
      "count": 85,
      "max": [
        0.99824368953704834,
        0.036897487938404083,
        0.99989813566207886
      ],
      "min": [
        -0.99824386835098267,
        -0.13266502320766449,
        -0.071155212819576263
      ],
      "type": "VEC3"
    },
    {
      "bufferView": 3,
      "componentType": 5126,
      "count": 85,
      "max": [
        0.033838260918855667,
        0.99990326166152954,
        0.13525135815143585,
        1
      ],
      "min": [
        -0.033840995281934738,
        0.99080139398574829,
        -0.032783295959234238,
        1
      ],
      "type": "VEC4"
    },
    {
      "bufferView": 1,
      "componentType": 5126,
      "count": 85,
      "max": [
        0.98750931024551392,
        0.64356881380081177
      ],
      "min": [
        0.030301645398139954,
        0.029838129878044128
      ],
      "type": "VEC2"
    },
    {
      "bufferView": 0,
      "componentType": 5125,
      "count": 258,
      "max": [
        84
      ],
      "min": [
        0
      ],
      "type": "SCALAR"
    },
    {
      "bufferView": 2,
      "byteOffset": 2040,
      "componentType": 5126,
      "count": 176,
      "max": [
        5.6823081970214844,
        9.1545038223266602,
        80.516845703125
      ],
      "min": [
        -5.6823081970214844,
        -5.6823077201843262,
        8.1932924445027311e-08
      ],
      "type": "VEC3"
    },
    {
      "bufferView": 2,
      "byteOffset": 4152,
      "componentType": 5126,
      "count": 176,
      "max": [
        0.99999970197677612,
        0.99996191263198853,
        0.99619495868682861
      ],
      "min": [
        -0.99999970197677612,
        -0.99996191263198853,
        -1
      ],
      "type": "VEC3"
    },
    {
      "bufferView": 3,
      "byteOffset": 1360,
      "componentType": 5126,
      "count": 176,
      "max": [
        0.9999961256980896,
        1,
        0.054757826030254364,
        1
      ],
      "min": [
        -0.99999994039535522,
        -0.99947220087051392,
        -0.087162286043167114,
        1
      ],
      "type": "VEC4"
    },
    {
      "bufferView": 1,
      "byteOffset": 680,
      "componentType": 5126,
      "count": 176,
      "max": [
        0.64041155576705933,
        0.99799996614456177
      ],
      "min": [
        0.0020000000949949026,
        0.0020000000949949026
      ],
      "type": "VEC2"
    },
    {
      "bufferView": 0,
      "byteOffset": 1032,
      "componentType": 5125,
      "count": 708,
      "max": [
        175
      ],
      "min": [
        0
      ],
      "type": "SCALAR"
    },
    {
      "bufferView": 2,
      "byteOffset": 6264,
      "componentType": 5126,
      "count": 284,
      "max": [
        -10.829343795776367,
        19.260896682739258,
        0.99999898672103882
      ],
      "min": [
        -49.35113525390625,
        -19.260896682739258,
        -1.7511752048449125e-06
      ],
      "type": "VEC3"
    },
    {
      "bufferView": 2,
      "byteOffset": 9672,
      "componentType": 5126,
      "count": 284,
      "max": [
        0.99557924270629883,
        0.99998527765274048,
        1
      ],
      "min": [
        -0.99619400501251221,
        -1,
        -1
      ],
      "type": "VEC3"
    },
    {
      "bufferView": 3,
      "byteOffset": 4176,
      "componentType": 5126,
      "count": 284,
      "max": [
        1,
        0.024273522198200226,
        1,
        1
      ],
      "min": [
        -1,
        -2.7567039069253951e-05,
        -1,
        -1
      ],
      "type": "VEC4"
    },
    {
      "bufferView": 1,
      "byteOffset": 2088,
      "componentType": 5126,
      "count": 284,
      "max": [
        0.9607698917388916,
        0.96171170473098755
      ],
      "min": [
        0.022600062191486359,
        0.012736499309539795
      ],
      "type": "VEC2"
    },
    {
      "bufferView": 0,
      "byteOffset": 3864,
      "componentType": 5125,
      "count": 828,
      "max": [
        283
      ],
      "min": [
        0
      ],
      "type": "SCALAR"
    },
    {
      "bufferView": 2,
      "byteOffset": 13080,
      "componentType": 5126,
      "count": 875,
      "max": [
        4.987053394317627,
        8.1308565139770508,
        80.431167602539062
      ],
      "min": [
        -4.987053394317627,
        -4.987053394317627,
        0
      ],
      "type": "VEC3"
    },
    {
      "bufferView": 2,
      "byteOffset": 23580,
      "componentType": 5126,
      "count": 875,
      "max": [
        1,
        1,
        0.99741297960281372
      ],
      "min": [
        -1,
        -1,
        -0.76689279079437256
      ],
      "type": "VEC3"
    },
    {
      "bufferView": 3,
      "byteOffset": 8720,
      "componentType": 5126,
      "count": 875,
      "max": [
        0.99990040063858032,
        0.99973034858703613,
        0.75962430238723755,
        1
      ],
      "min": [
        -0.99990129470825195,
        -0.9999966025352478,
        -0.76151490211486816,
        1
      ],
      "type": "VEC4"
    },
    {
      "bufferView": 1,
      "byteOffset": 4360,
      "componentType": 5126,
      "count": 875,
      "max": [
        0.99799996614456177,
        0.93996632099151611
      ],
      "min": [
        0.0020000000949949026,
        0.0020000000949949026
      ],
      "type": "VEC2"
    },
    {
      "bufferView": 0,
      "byteOffset": 7176,
      "componentType": 5125,
      "count": 2580,
      "max": [
        874
      ],
      "min": [
        0
      ],
      "type": "SCALAR"
    }
  ],
  "asset": {
    "extras": {
      "author": "CrazyMoralFreak (https://sketchfab.com/crazymoralfreak)",
      "license": "CC-BY-4.0 (http://creativecommons.org/licenses/by/4.0/)",
      "source": "https://sketchfab.com/models/2e54ac3f950c4755812852d81af4a88b",
      "title": "Samurai Sword"
    },
    "generator": "Sketchfab-3.19.4",
    "version": "2.0"
  },
  "bufferViews": [
    {
      "buffer": 0,
      "byteLength": 17496,
      "byteOffset": 0,
      "name": "floatBufferViews",
      "target": 34963
    },
    {
      "buffer": 0,
      "byteLength": 11360,
      "byteOffset": 17496,
      "byteStride": 8,
      "name": "floatBufferViews",
      "target": 34962
    },
    {
      "buffer": 0,
      "byteLength": 34080,
      "byteOffset": 28856,
      "byteStride": 12,
      "name": "floatBufferViews",
      "target": 34962
    },
    {
      "buffer": 0,
      "byteLength": 22720,
      "byteOffset": 62936,
      "byteStride": 16,
      "name": "floatBufferViews",
      "target": 34962
    }
  ],
  "buffers": [
    {
      "byteLength": 85656,
      "uri": "scene.bin"
    }
  ],
  "images": [
    {
      "uri": "textures/M_Misc_metallicRoughness.png"
    },
    {
      "uri": "textures/M_Misc_normal.png"
    },
    {
      "uri": "textures/M_Misc_baseColor.png"
    },
    {
      "uri": "textures/M_Def_metallicRoughness.png"
    },
    {
      "uri": "textures/M_Def_normal.png"
    },
    {
      "uri": "textures/M_Def_baseColor.png"
    },
    {
      "uri": "textures/M_Blade_metallicRoughness.png"
    },
    {
      "uri": "textures/M_Blade_normal.png"
    },
    {
      "uri": "textures/M_Blade_baseColor.png"
    },
    {
      "uri": "textures/M_Handle_metallicRoughness.png"
    },
    {
      "uri": "textures/M_Handle_normal.png"
    },
    {
      "uri": "textures/M_Handle_baseColor.png"
    }
  ],
  "materials": [
    {
      "doubleSided": true,
      "emissiveFactor": [
        0,
        0,
        0
      ],
      "name": "M_Blade",
      "normalTexture": {
        "index": 7,
        "scale": 1,
        "texCoord": 0
      },
      "occlusionTexture": {
        "index": 6,
        "strength": 1,
        "texCoord": 0
      },
      "pbrMetallicRoughness": {
        "baseColorFactor": [
          1,
          1,
          1,
          1
        ],
        "baseColorTexture": {
          "index": 8,
          "texCoord": 0
        },
        "metallicFactor": 1,
        "metallicRoughnessTexture": {
          "index": 6,
          "texCoord": 0
        },
        "roughnessFactor": 1
      }
    },
    {
      "doubleSided": true,
      "emissiveFactor": [
        0,
        0,
        0
      ],
      "name": "M_Handle",
      "normalTexture": {
        "index": 10,
        "scale": 1,
        "texCoord": 0
      },
      "occlusionTexture": {
        "index": 9,
        "strength": 1,
        "texCoord": 0
      },
      "pbrMetallicRoughness": {
        "baseColorFactor": [
          1,
          1,
          1,
          1
        ],
        "baseColorTexture": {
          "index": 11,
          "texCoord": 0
        },
        "metallicFactor": 1,
        "metallicRoughnessTexture": {
          "index": 9,
          "texCoord": 0
        },
        "roughnessFactor": 1
      }
    },
    {
      "doubleSided": true,
      "emissiveFactor": [
        0,
        0,
        0
      ],
      "name": "M_Def",
      "normalTexture": {
        "index": 4,
        "scale": 1,
        "texCoord": 0
      },
      "occlusionTexture": {
        "index": 3,
        "strength": 1,
        "texCoord": 0
      },
      "pbrMetallicRoughness": {
        "baseColorFactor": [
          1,
          1,
          1,
          1
        ],
        "baseColorTexture": {
          "index": 5,
          "texCoord": 0
        },
        "metallicFactor": 1,
        "metallicRoughnessTexture": {
          "index": 3,
          "texCoord": 0
        },
        "roughnessFactor": 1
      }
    },
    {
      "doubleSided": true,
      "emissiveFactor": [
        0,
        0,
        0
      ],
      "name": "M_Misc",
      "normalTexture": {
        "index": 1,
        "scale": 1,
        "texCoord": 0
      },
      "occlusionTexture": {
        "index": 0,
        "strength": 1,
        "texCoord": 0
      },
      "pbrMetallicRoughness": {
        "baseColorFactor": [
          1,
          1,
          1,
          1
        ],
        "baseColorTexture": {
          "index": 2,
          "texCoord": 0
        },
        "metallicFactor": 1,
        "metallicRoughnessTexture": {
          "index": 0,
          "texCoord": 0
        },
        "roughnessFactor": 1
      }
    }
  ],
  "meshes": [
    {
      "name": "Box001_M_Blade_0",
      "primitives": [
        {
          "attributes": {
            "NORMAL": 1,
            "POSITION": 0,
            "TANGENT": 2,
            "TEXCOORD_0": 3
          },
          "indices": 4,
          "material": 0,
          "mode": 4
        }
      ]
    },
    {
      "name": "Cylinder001_M_Handle_0",
      "primitives": [
        {
          "attributes": {
            "NORMAL": 6,
            "POSITION": 5,
            "TANGENT": 7,
            "TEXCOORD_0": 8
          },
          "indices": 9,
          "material": 1,
          "mode": 4
        }
      ]
    },
    {
      "name": "Circle001_M_Def_0",
      "primitives": [
        {
          "attributes": {
            "NORMAL": 11,
            "POSITION": 10,
            "TANGENT": 12,
            "TEXCOORD_0": 13
          },
          "indices": 14,
          "material": 2,
          "mode": 4
        }
      ]
    },
    {
      "name": "ChamferCyl002_M_Misc_0",
      "primitives": [
        {
          "attributes": {
            "NORMAL": 16,
            "POSITION": 15,
            "TANGENT": 17,
            "TEXCOORD_0": 18
          },
          "indices": 19,
          "material": 3,
          "mode": 4
        }
      ]
    }
  ],
  "nodes": [
    {
      "children": [
        1
      ],
      "name": "RootNode (gltf orientation matrix)",
      "rotation": [
        -0.70710678118654746,
        -0,
        -0,
        0.70710678118654757
      ]
    },
    {
      "children": [
        2
      ],
      "matrix": [
        -1,
        0,
        0,
        0,
        0,
        1,
        0,
        0,
        0,
        0,
        -1,
        0,
        -1.2327020168304443,
        0,
        -8.5920171737670898,
        1
      ],
      "name": "RootNode (model correction matrix)"
    },
    {
      "children": [
        3
      ],
      "matrix": [
        1,
        0,
        0,
        0,
        0,
        -1,
        0,
        0,
        0,
        0,
        -1,
        0,
        0,
        0,
        0,
        1
      ],
      "name": "9d9b42e352f747f1aeb8dbd32bc7ad2b.fbx"
    },
    {
      "children": [
        4,
        6,
        9,
        12
      ],
      "name": "RootNode"
    },
    {
      "children": [
        5
      ],
      "matrix": [
        0.99999999999999234,
        8.7422776573475183e-08,
        -8.7422776573475183e-08,
        0,
        -8.7422784216217043e-08,
        0.99999999999999234,
        -8.7422776573475183e-08,
        0,
        8.742276893073266e-08,
        8.7422784216217043e-08,
        0.99999999999999234,
        0,
        -0.6163628101348877,
        56.239543914794922,
        3.4798979759216309,
        1
      ],
      "name": "Box001"
    },
    {
      "mesh": 0,
      "name": "Box001_M_Blade_0"
    },
    {
      "children": [
        7
      ],
      "matrix": [
        0.82420909404754639,
        0,
        0,
        0,
        0,
        0.020727570679933149,
        0.82394841982030986,
        0,
        0,
        -0.93457451024076532,
        0.023510524142887464,
        0,
        -0.5622972846031189,
        -84.56927490234375,
        2.1030786037445068,
        1
      ],
      "name": "Cylinder001"
    },
    {
      "children": [
        8
      ],
      "matrix": [
        1,
        0,
        -0,
        0,
        0,
        1,
        0,
        0,
        0,
        0,
        1,
        0,
        0,
        -1.7360981702804565,
        -40.2584228515625,
        1
      ],
      "name": ""
    },
    {
      "mesh": 1,
      "name": "Cylinder001_M_Handle_0"
    },
    {
      "children": [
        10
      ],
      "matrix": [
        0.59967315196990967,
        0,
        0,
        0,
        0,
        0.015080843175193379,
        0.5994834921519121,
        0,
        0,
        -0.5994834921519121,
        0.015080843175193379,
        0,
        -0.33168411254882812,
        -46.455451965332031,
        1.0821722745895386,
        1
      ],
      "name": "Circle001"
    },
    {
      "children": [
        11
      ],
      "matrix": [
        1,
        0,
        -0,
        0,
        0,
        1,
        0,
        0,
        0,
        0,
        1,
        0,
        30.090240478515625,
        4.7497451305389404e-08,
        -0.49999681115150452,
        1
      ],
      "name": ""
    },
    {
      "mesh": 2,
      "name": "Circle001_M_Def_0"
    },
    {
      "children": [
        13
      ],
      "matrix": [
        1,
        0,
        0,
        0,
        0,
        0.025148676312605533,
        0.99968372202398281,
        0,
        0,
        -0.99968372202398281,
        0.025148676312605533,
        0,
        -0.56317567825317383,
        -86.409416198730469,
        2.2967581748962402,
        1
      ],
      "name": "ChamferCyl002"
    },
    {
      "children": [
        14
      ],
      "matrix": [
        1,
        0,
        -0,
        0,
        0,
        1,
        0,
        0,
        0,
        0,
        1,
        0,
        0,
        -1.5719016790390015,
        -40.215583801269531,
        1
      ],
      "name": ""
    },
    {
      "mesh": 3,
      "name": "ChamferCyl002_M_Misc_0"
    }
  ],
  "samplers": [
    {
      "magFilter": 9729,
      "minFilter": 9987,
      "wrapS": 10497,
      "wrapT": 10497
    }
  ],
  "scene": 0,
  "scenes": [
    {
      "name": "OSG_Scene",
      "nodes": [
        0
      ]
    }
  ],
  "textures": [
    {
      "sampler": 0,
      "source": 0
    },
    {
      "sampler": 0,
      "source": 1
    },
    {
      "sampler": 0,
      "source": 2
    },
    {
      "sampler": 0,
      "source": 3
    },
    {
      "sampler": 0,
      "source": 4
    },
    {
      "sampler": 0,
      "source": 5
    },
    {
      "sampler": 0,
      "source": 6
    },
    {
      "sampler": 0,
      "source": 7
    },
    {
      "sampler": 0,
      "source": 8
    },
    {
      "sampler": 0,
      "source": 9
    },
    {
      "sampler": 0,
      "source": 10
    },
    {
      "sampler": 0,
      "source": 11
    }
  ]
}

