{
  "accessors": [
    {
      "bufferView": 2,
      "componentType": 5126,
      "count": 4932,
      "max": [
        10.992259979248047,
        37.454349517822266,
        25.027450561523438
      ],
      "min": [
        -15.258230209350586,
        -37.454349517822266,
        0.020479999482631683
      ],
      "type": "VEC3"
    },
    {
      "bufferView": 2,
      "byteOffset": 59184,
      "componentType": 5126,
      "count": 4932,
      "max": [
        1,
        1,
        1
      ],
      "min": [
        -1,
        -1,
        -1
      ],
      "type": "VEC3"
    },
    {
      "bufferView": 3,
      "componentType": 5126,
      "count": 4932,
      "max": [
        1,
        0.99999910593032837,
        0.99999886751174927,
        1
      ],
      "min": [
        -0.9999995231628418,
        -0.99999910593032837,
        -1,
        -1
      ],
      "type": "VEC4"
    },
    {
      "bufferView": 1,
      "componentType": 5126,
      "count": 4932,
      "max": [
        0.98519998788833618,
        0.98527997732162476
      ],
      "min": [
        0.006920000072568655,
        0.02718999981880188
      ],
      "type": "VEC2"
    },
    {
      "bufferView": 1,
      "byteOffset": 39456,
      "componentType": 5126,
      "count": 4932,
      "max": [
        0.98519998788833618,
        0.98527997732162476
      ],
      "min": [
        0.006920000072568655,
        0.02718999981880188
      ],
      "type": "VEC2"
    },
    {
      "bufferView": 0,
      "componentType": 5125,
      "count": 10044,
      "max": [
        4931
      ],
      "min": [
        0
      ],
      "type": "SCALAR"
    },
    {
      "bufferView": 2,
      "byteOffset": 118368,
      "componentType": 5126,
      "count": 99,
      "max": [
        -0.070309996604919434,
        1.0318599939346313,
        0
      ],
      "min": [
        -1.0104399919509888,
        -1.0467300415039062,
        0
      ],
      "type": "VEC3"
    },
    {
      "bufferView": 2,
      "byteOffset": 119556,
      "componentType": 5126,
      "count": 99,
      "max": [
        0,
        -0,
        1
      ],
      "min": [
        0,
        -0,
        1
      ],
      "type": "VEC3"
    },
    {
      "bufferView": 3,
      "byteOffset": 78912,
      "componentType": 5126,
      "count": 99,
      "max": [
        0.00012589324614964426,
        1,
        0,
        1
      ],
      "min": [
        -9.7576594271231443e-05,
        1,
        0,
        1
      ],
      "type": "VEC4"
    },
    {
      "bufferView": 1,
      "byteOffset": 78912,
      "componentType": 5126,
      "count": 99,
      "max": [
        14.304200172424316,
        0.38949000835418701
      ],
      "min": [
        -12.590889930725098,
        -11.774979591369629
      ],
      "type": "VEC2"
    },
    {
      "bufferView": 0,
      "byteOffset": 40176,
      "componentType": 5125,
      "count": 384,
      "max": [
        98
      ],
      "min": [
        0
      ],
      "type": "SCALAR"
    }
  ],
  "asset": {
    "extras": {
      "author": "ika ika (https://sketchfab.com/icabrantes)",
      "license": "CC-BY-4.0 (http://creativecommons.org/licenses/by/4.0/)",
      "source": "https://sketchfab.com/models/aff319d73b444e99b2ee84ff8fbf5115",
      "title": "Templo"
    },
    "generator": "Sketchfab-4.24.0",
    "version": "2.0"
  },
  "bufferViews": [
    {
      "buffer": 0,
      "byteLength": 41712,
      "byteOffset": 0,
      "name": "floatBufferViews",
      "target": 34963
    },
    {
      "buffer": 0,
      "byteLength": 79704,
      "byteOffset": 41712,
      "byteStride": 8,
      "name": "floatBufferViews",
      "target": 34962
    },
    {
      "buffer": 0,
      "byteLength": 120744,
      "byteOffset": 121416,
      "byteStride": 12,
      "name": "floatBufferViews",
      "target": 34962
    },
    {
      "buffer": 0,
      "byteLength": 80496,
      "byteOffset": 242160,
      "byteStride": 16,
      "name": "floatBufferViews",
      "target": 34962
    }
  ],
  "buffers": [
    {
      "byteLength": 322656,
      "uri": "scene.bin"
    }
  ],
  "images": [
    {
      "uri": "textures/Material.002_normal.png"
    },
    {
      "uri": "textures/Material.002_baseColor.png"
    }
  ],
  "materials": [
    {
      "doubleSided": true,
      "emissiveFactor": [
        0,
        0,
        0
      ],
      "name": "Plane_0",
      "pbrMetallicRoughness": {
        "baseColorFactor": [
          1,
          1,
          1,
          1
        ],
        "metallicFactor": 0,
        "roughnessFactor": 0.59999999999999998
      }
    },
    {
      "doubleSided": true,
      "emissiveFactor": [
        0,
        0,
        0
      ],
      "name": "Material.002",
      "normalTexture": {
        "index": 0,
        "scale": 1,
        "texCoord": 0
      },
      "pbrMetallicRoughness": {
        "baseColorFactor": [
          1,
          1,
          1,
          1
        ],
        "baseColorTexture": {
          "index": 1,
          "texCoord": 0
        },
        "metallicFactor": 0,
        "roughnessFactor": 0.59999999999999998
      }
    }
  ],
  "meshes": [
    {
      "name": "Cylinder.001_0",
      "primitives": [
        {
          "attributes": {
            "NORMAL": 1,
            "POSITION": 0,
            "TANGENT": 2,
            "TEXCOORD_0": 3,
            "TEXCOORD_1": 4
          },
          "indices": 5,
          "material": 1,
          "mode": 4
        }
      ]
    },
    {
      "name": "Plane_0",
      "primitives": [
        {
          "attributes": {
            "NORMAL": 7,
            "POSITION": 6,
            "TANGENT": 8,
            "TEXCOORD_0": 9
          },
          "indices": 10,
          "material": 0,
          "mode": 4
        }
      ]
    }
  ],
  "nodes": [
    {
      "children": [
        1
      ],
      "name": "RootNode (gltf orientation matrix)",
      "rotation": [
        -0.70710678118654746,
        -0,
        -0,
        0.70710678118654757
      ]
    },
    {
      "children": [
        2
      ],
      "name": "RootNode (model correction matrix)"
    },
    {
      "children": [
        3,
        5
      ],
      "name": "Root"
    },
    {
      "children": [
        4
      ],
      "matrix": [
        0.49487000000000009,
        0,
        0,
        0,
        0,
        0.49487000000000009,
        0,
        0,
        0,
        0,
        0.38195000000000007,
        0,
        -5.2896600000000014,
        -2.5117099999999999,
        -0.82076000000000005,
        1
      ],
      "name": "Cylinder.001"
    },
    {
      "mesh": 0,
      "name": "Cylinder.001_0"
    },
    {
      "children": [
        6
      ],
      "matrix": [
        18.85333,
        0,
        0,
        0,
        0,
        18.85333,
        0,
        0,
        0,
        0,
        18.85333,
        0,
        4.41317,
        -3.2741700000000002,
        -0.77542999999999995,
        1
      ],
      "name": "Plane"
    },
    {
      "mesh": 1,
      "name": "Plane_0"
    }
  ],
  "samplers": [
    {
      "magFilter": 9729,
      "minFilter": 9987,
      "wrapS": 10497,
      "wrapT": 10497
    }
  ],
  "scene": 0,
  "scenes": [
    {
      "name": "OSG_Scene",
      "nodes": [
        0
      ]
    }
  ],
  "textures": [
    {
      "sampler": 0,
      "source": 0
    },
    {
      "sampler": 0,
      "source": 1
    }
  ]
}

