{
  "accessors": [
    {
      "bufferView": 2,
      "componentType": 5126,
      "count": 1872,
      "max": [
        9.7495841979980469,
        8.4705352783203125,
        9.1587562561035156
      ],
      "min": [
        -11.425491333007812,
        -12.482114791870117,
        -12.260127067565918
      ],
      "type": "VEC3"
    },
    {
      "bufferView": 2,
      "byteOffset": 22464,
      "componentType": 5126,
      "count": 1872,
      "max": [
        0.91332989931106567,
        0.99863535165786743,
        0.9980696439743042
      ],
      "min": [
        -0.9989020824432373,
        -0.99889785051345825,
        -0.98777490854263306
      ],
      "type": "VEC3"
    },
    {
      "bufferView": 3,
      "componentType": 5126,
      "count": 1872,
      "max": [
        0.98254871368408203,
        0.99881565570831299,
        0.99936830997467041,
        1
      ],
      "min": [
        -0.99155491590499878,
        -0.85095459222793579,
        -0.99412530660629272,
        1
      ],
      "type": "VEC4"
    },
    {
      "bufferView": 1,
      "componentType": 5126,
      "count": 1872,
      "max": [
        0.99990004301071167,
        0.99990004301071167
      ],
      "min": [
        9.9980010418221354e-05,
        9.9980010418221354e-05
      ],
      "type": "VEC2"
    },
    {
      "bufferView": 0,
      "componentType": 5125,
      "count": 2808,
      "max": [
        1871
      ],
      "min": [
        0
      ],
      "type": "SCALAR"
    },
    {
      "bufferView": 2,
      "byteOffset": 44928,
      "componentType": 5126,
      "count": 1556,
      "max": [
        2.1002240180969238,
        0.82442706823348999,
        -0.60857224464416504
      ],
      "min": [
        -2.0991168022155762,
        -10.170472145080566,
        -8.4834766387939453
      ],
      "type": "VEC3"
    },
    {
      "bufferView": 2,
      "byteOffset": 63600,
      "componentType": 5126,
      "count": 1556,
      "max": [
        1,
        0.95352596044540405,
        0.99650019407272339
      ],
      "min": [
        -1,
        -0.92807626724243164,
        -0.99650019407272339
      ],
      "type": "VEC3"
    },
    {
      "bufferView": 3,
      "byteOffset": 29952,
      "componentType": 5126,
      "count": 1556,
      "max": [
        1,
        0.99940425157546997,
        0.99695509672164917,
        1
      ],
      "min": [
        -1,
        -0.99700862169265747,
        -0.98463159799575806,
        1
      ],
      "type": "VEC4"
    },
    {
      "bufferView": 1,
      "byteOffset": 14976,
      "componentType": 5126,
      "count": 1556,
      "max": [
        0.99622577428817749,
        0.9933585524559021
      ],
      "min": [
        0.00017291160474997014,
        0.00017291160474997014
      ],
      "type": "VEC2"
    },
    {
      "bufferView": 0,
      "byteOffset": 11232,
      "componentType": 5125,
      "count": 2334,
      "max": [
        1555
      ],
      "min": [
        0
      ],
      "type": "SCALAR"
    },
    {
      "bufferView": 2,
      "byteOffset": 82272,
      "componentType": 5126,
      "count": 23272,
      "max": [
        2.5919599533081055,
        1.6772947311401367,
        0.4366687536239624
      ],
      "min": [
        -2.5919599533081055,
        -3.0713613033294678,
        -4.6920289993286133
      ],
      "type": "VEC3"
    },
    {
      "bufferView": 2,
      "byteOffset": 361536,
      "componentType": 5126,
      "count": 23272,
      "max": [
        1,
        0.99997186660766602,
        0.99996292591094971
      ],
      "min": [
        -1,
        -0.99984538555145264,
        -0.99903243780136108
      ],
      "type": "VEC3"
    },
    {
      "bufferView": 3,
      "byteOffset": 54848,
      "componentType": 5126,
      "count": 23272,
      "max": [
        0.99999713897705078,
        0.99881523847579956,
        0.99996840953826904,
        1
      ],
      "min": [
        -0.99999874830245972,
        -0.99807518720626831,
        -0.99995642900466919,
        -1
      ],
      "type": "VEC4"
    },
    {
      "bufferView": 1,
      "byteOffset": 27424,
      "componentType": 5126,
      "count": 23272,
      "max": [
        0.99774265289306641,
        0.99935871362686157
      ],
      "min": [
        0.0020803746301680803,
        0.0012750136665999889
      ],
      "type": "VEC2"
    },
    {
      "bufferView": 0,
      "byteOffset": 20568,
      "componentType": 5125,
      "count": 34572,
      "max": [
        23271
      ],
      "min": [
        0
      ],
      "type": "SCALAR"
    }
  ],
  "asset": {
    "extras": {
      "author": "Robert Lindner (https://sketchfab.com/illation)",
      "license": "CC-BY-NC-ND-4.0 (http://creativecommons.org/licenses/by-nc-nd/4.0/)",
      "source": "https://sketchfab.com/models/13b3ab49b6bd4247be36b54ba1a56d8a",
      "title": "PBR Kabuto [Samurai Helmet]"
    },
    "generator": "Sketchfab-3.20.8",
    "version": "2.0"
  },
  "bufferViews": [
    {
      "buffer": 0,
      "byteLength": 158856,
      "byteOffset": 0,
      "name": "floatBufferViews",
      "target": 34963
    },
    {
      "buffer": 0,
      "byteLength": 213600,
      "byteOffset": 158856,
      "byteStride": 8,
      "name": "floatBufferViews",
      "target": 34962
    },
    {
      "buffer": 0,
      "byteLength": 640800,
      "byteOffset": 372456,
      "byteStride": 12,
      "name": "floatBufferViews",
      "target": 34962
    },
    {
      "buffer": 0,
      "byteLength": 427200,
      "byteOffset": 1013256,
      "byteStride": 16,
      "name": "floatBufferViews",
      "target": 34962
    }
  ],
  "buffers": [
    {
      "byteLength": 1440456,
      "uri": "scene.bin"
    }
  ],
  "images": [
    {
      "uri": "textures/Material.001_metallicRoughness.png"
    },
    {
      "uri": "textures/Material.001_baseColor.png"
    },
    {
      "uri": "textures/Material_metallicRoughness.png"
    },
    {
      "uri": "textures/Material_normal.png"
    },
    {
      "uri": "textures/Material_baseColor.png"
    },
    {
      "uri": "textures/Dust_baseColor.png"
    }
  ],
  "materials": [
    {
      "alphaMode": "BLEND",
      "doubleSided": true,
      "emissiveFactor": [
        0,
        0,
        0
      ],
      "name": "Dust",
      "pbrMetallicRoughness": {
        "baseColorFactor": [
          1,
          1,
          1,
          1
        ],
        "baseColorTexture": {
          "index": 5,
          "texCoord": 0
        },
        "metallicFactor": 0,
        "roughnessFactor": 0.20000000000000001
      }
    },
    {
      "doubleSided": false,
      "emissiveFactor": [
        0,
        0,
        0
      ],
      "name": "Material.001",
      "occlusionTexture": {
        "index": 0,
        "strength": 1,
        "texCoord": 0
      },
      "pbrMetallicRoughness": {
        "baseColorFactor": [
          0.37,
          0.37,
          0.37,
          1
        ],
        "baseColorTexture": {
          "index": 1,
          "texCoord": 0
        },
        "metallicFactor": 1,
        "roughnessFactor": 0.93999999999999995
      }
    },
    {
      "doubleSided": false,
      "emissiveFactor": [
        0,
        0,
        0
      ],
      "name": "Material",
      "normalTexture": {
        "index": 3,
        "scale": 1,
        "texCoord": 0
      },
      "occlusionTexture": {
        "index": 2,
        "strength": 1,
        "texCoord": 0
      },
      "pbrMetallicRoughness": {
        "baseColorFactor": [
          1,
          1,
          1,
          1
        ],
        "baseColorTexture": {
          "index": 4,
          "texCoord": 0
        },
        "metallicFactor": 1,
        "metallicRoughnessTexture": {
          "index": 2,
          "texCoord": 0
        },
        "roughnessFactor": 1
      }
    }
  ],
  "meshes": [
    {
      "name": "Helmet_Dust_0",
      "primitives": [
        {
          "attributes": {
            "NORMAL": 1,
            "POSITION": 0,
            "TANGENT": 2,
            "TEXCOORD_0": 3
          },
          "indices": 4,
          "material": 0,
          "mode": 4
        }
      ]
    },
    {
      "name": "Helmet_Material.001_0",
      "primitives": [
        {
          "attributes": {
            "NORMAL": 6,
            "POSITION": 5,
            "TANGENT": 7,
            "TEXCOORD_0": 8
          },
          "indices": 9,
          "material": 1,
          "mode": 4
        }
      ]
    },
    {
      "name": "Helmet_Material_0",
      "primitives": [
        {
          "attributes": {
            "NORMAL": 11,
            "POSITION": 10,
            "TANGENT": 12,
            "TEXCOORD_0": 13
          },
          "indices": 14,
          "material": 2,
          "mode": 4
        }
      ]
    }
  ],
  "nodes": [
    {
      "children": [
        1
      ],
      "name": "RootNode (gltf orientation matrix)",
      "rotation": [
        -0.70710678118654746,
        -0,
        -0,
        0.70710678118654757
      ]
    },
    {
      "children": [
        2
      ],
      "name": "RootNode (model correction matrix)"
    },
    {
      "children": [
        3
      ],
      "matrix": [
        1,
        0,
        0,
        0,
        0,
        0,
        1,
        0,
        0,
        -1,
        0,
        0,
        0,
        0,
        0,
        1
      ],
      "name": "3ec37ebc8b424ad2adcd16fe4f641458.fbx"
    },
    {
      "children": [
        4
      ],
      "name": "RootNode"
    },
    {
      "children": [
        5,
        6,
        7
      ],
      "matrix": [
        100,
        -1.9465100354545563e-14,
        -1.1520456734425316e-14,
        0,
        1.1520460897189677e-14,
        87.663028590533713,
        -48.116456834800985,
        0,
        1.946509789080494e-14,
        48.116456834800985,
        87.663028590533713,
        0,
        274.637451171875,
        -94.611129760742188,
        243.00045776367188,
        1
      ],
      "name": "Helmet"
    },
    {
      "mesh": 0,
      "name": "Helmet_Dust_0"
    },
    {
      "mesh": 1,
      "name": "Helmet_Material.001_0"
    },
    {
      "mesh": 2,
      "name": "Helmet_Material_0"
    }
  ],
  "samplers": [
    {
      "magFilter": 9729,
      "minFilter": 9987,
      "wrapS": 10497,
      "wrapT": 10497
    }
  ],
  "scene": 0,
  "scenes": [
    {
      "name": "OSG_Scene",
      "nodes": [
        0
      ]
    }
  ],
  "textures": [
    {
      "sampler": 0,
      "source": 0
    },
    {
      "sampler": 0,
      "source": 1
    },
    {
      "sampler": 0,
      "source": 2
    },
    {
      "sampler": 0,
      "source": 3
    },
    {
      "sampler": 0,
      "source": 4
    },
    {
      "sampler": 0,
      "source": 5
    }
  ]
}

